# xmcd
#
# Track frame offsets:
#	150
#	15526
#	32540
#	44967
#	59681
#	72479
#	86618
#	105502
#	120098
#	135169
#	151417
#
# Disc length: 2241 seconds
#
# Revision: 2
# Processed by: cddbd v1.5.2PL0 Copyright (c) Steve Scherf et al.
# Submitted via: audiograbber 1.82.02
#
DISCID=8a08bf0b
DTITLE=Ταξιδευτές - Ταξιδευτές
DYEAR=2007
DGENRE=Ελαφρό προς Rock
TTITLE0=Μάτια μου
TTITLE1=Τι κι αν ξέρω
TTITLE2=Ταξιδευτές
TTITLE3=Ονειρα μπλε
TTITLE4=Εχεις κάνει λάθος
TTITLE5=Εισιτήριο
TTITLE6=Τα πάντα
TTITLE7=Ακόμα μια στάση
TTITLE8=Θα φύγω
TTITLE9=Σε περιμένω
TTITLE10=Βήματα αργά
EXTD=
EXTT0=
EXTT1=
EXTT2=
EXTT3=
EXTT4=
EXTT5=
EXTT6=
EXTT7=
EXTT8=
EXTT9=
EXTT10=
PLAYORDER=
